<?xml version="1.0" standalone="no"?>
<!DOCTYPE svg PUBLIC "-//W3C//DTD SVG 20010904//EN"
 "http://www.w3.org/TR/2001/REC-SVG-20010904/DTD/svg10.dtd">
<svg version="1.0" xmlns="http://www.w3.org/2000/svg"
 width="1181.000000pt" height="215.000000pt" viewBox="0 0 1181.000000 215.000000"
 preserveAspectRatio="xMidYMid meet">

<g transform="translate(0.000000,215.000000) scale(0.100000,-0.100000)"
fill="#000000" stroke="none">
<path d="M8748 1939 c-16 -9 -18 -27 -18 -149 0 -127 2 -140 19 -150 11 -6 90
-10 184 -10 208 0 197 -9 197 162 0 167 11 158 -201 158 -93 0 -172 -5 -181
-11z"/>
<path d="M3365 1878 c-3 -7 -111 -328 -240 -712 -224 -664 -235 -700 -218
-718 15 -17 31 -18 197 -16 l181 3 41 135 42 135 204 3 205 2 12 -42 c7 -24
26 -87 42 -141 l30 -97 190 0 c188 0 190 0 200 23 9 19 -28 138 -227 730
l-238 707 -208 0 c-158 0 -210 -3 -213 -12z m288 -765 l25 -83 -104 0 c-57 0
-104 3 -104 6 0 7 88 293 97 314 5 14 28 -48 86 -237z"/>
<path d="M2210 1659 c-135 -26 -378 -73 -540 -105 -162 -31 -296 -57 -297 -58
0 0 36 -190 82 -421 45 -231 93 -475 105 -542 21 -115 24 -122 44 -118 19 5
805 155 1004 192 77 14 83 17 78 37 -4 17 -137 696 -193 984 -9 46 -21 82 -27
81 -6 -1 -121 -23 -256 -50z"/>
<path d="M812 1620 c-208 -44 -454 -166 -598 -297 l-42 -38 88 -450 c49 -247
94 -483 101 -522 6 -40 16 -73 20 -73 5 0 42 24 82 54 244 180 458 267 663
267 137 0 243 -38 338 -122 45 -40 49 -41 43 -19 -3 14 -51 259 -107 545 -115
593 -105 563 -224 625 -66 33 -71 34 -194 37 -70 1 -146 -2 -170 -7z m237
-100 c64 -11 133 -40 147 -61 9 -14 175 -831 170 -836 -1 -2 -30 9 -62 24 -55
26 -68 28 -179 27 -139 -1 -225 -21 -368 -84 -76 -33 -224 -116 -289 -162 -9
-7 -19 -10 -22 -8 -5 6 -156 794 -156 819 0 38 240 184 389 236 78 27 203 53
266 54 22 0 69 -4 104 -9z"/>
<path d="M4822 1560 c-255 -36 -420 -167 -486 -389 -25 -83 -30 -222 -12 -319
46 -257 220 -407 511 -442 141 -17 259 0 402 57 l63 25 0 148 c0 130 -2 149
-18 163 -27 25 -49 21 -95 -17 -77 -62 -123 -79 -222 -84 -79 -3 -95 -1 -134
20 -61 31 -97 81 -117 158 -28 108 -6 241 51 316 41 54 102 77 193 72 87 -4
141 -25 220 -89 55 -43 81 -48 105 -21 14 16 17 43 17 166 l0 147 -53 25
c-120 54 -299 81 -425 64z"/>
<path d="M5770 1564 c-61 -6 -161 -22 -243 -40 l-68 -16 3 -145 c2 -119 6
-148 18 -156 12 -7 44 1 115 29 96 37 105 39 220 39 138 0 184 -15 205 -66 7
-16 11 -31 9 -33 -2 -1 -61 -8 -132 -15 -285 -27 -421 -91 -489 -229 -31 -62
-33 -74 -33 -167 0 -93 2 -105 33 -167 64 -130 169 -192 327 -191 100 1 170
22 247 73 l43 29 3 -27 c6 -47 23 -52 192 -52 141 0 159 2 174 19 16 17 17 52
14 422 -4 461 -4 460 -88 552 -56 61 -125 98 -225 120 -73 16 -248 27 -325 21z
m260 -733 l0 -89 -37 -24 c-56 -34 -167 -38 -205 -8 -24 19 -28 29 -28 75 0
47 4 56 30 78 32 27 124 51 213 56 l27 1 0 -89z"/>
<path d="M7860 1564 c-61 -6 -161 -22 -243 -40 l-68 -16 3 -145 c2 -119 6
-148 18 -156 12 -7 44 1 115 29 96 37 105 39 220 39 138 0 184 -15 205 -66 7
-16 11 -31 9 -33 -2 -1 -61 -8 -132 -15 -285 -27 -421 -91 -489 -229 -31 -62
-33 -74 -33 -167 0 -93 2 -105 33 -167 64 -130 169 -192 327 -191 100 1 170
22 247 73 l43 29 3 -27 c6 -47 23 -52 192 -52 141 0 159 2 174 19 16 17 17 52
14 422 -4 461 -4 460 -88 552 -56 61 -125 98 -225 120 -73 16 -248 27 -325 21z
m260 -733 l0 -89 -37 -24 c-56 -34 -167 -38 -205 -8 -24 19 -28 29 -28 75 0
47 4 56 30 78 32 27 124 51 213 56 l27 1 0 -89z"/>
<path d="M10860 1564 c-61 -6 -161 -22 -243 -40 l-68 -16 3 -145 c2 -119 6
-148 18 -156 12 -7 44 1 115 29 96 37 105 39 220 39 138 0 184 -15 205 -66 7
-16 11 -31 9 -33 -2 -1 -61 -8 -132 -15 -285 -27 -421 -91 -489 -229 -31 -62
-33 -74 -33 -167 0 -93 2 -105 33 -167 64 -130 169 -192 327 -191 100 1 170
22 247 73 l43 29 3 -27 c6 -47 23 -52 192 -52 141 0 159 2 174 19 16 17 17 52
14 422 -4 461 -4 460 -88 552 -56 61 -125 98 -225 120 -73 16 -248 27 -325 21z
m260 -733 l0 -89 -37 -24 c-56 -34 -167 -38 -205 -8 -24 19 -28 29 -28 75 0
47 4 56 30 78 32 27 124 51 213 56 l27 1 0 -89z"/>
<path d="M6668 1529 c-17 -9 -18 -46 -18 -544 0 -518 1 -535 19 -545 29 -15
323 -13 344 3 15 11 17 47 19 357 l3 344 55 18 c42 13 83 17 171 16 85 -2 121
1 133 11 13 11 16 39 16 176 l0 162 -48 7 c-88 11 -187 -17 -273 -79 -27 -19
-51 -35 -54 -35 -3 0 -5 22 -5 50 0 38 -4 52 -19 60 -25 13 -320 13 -343 -1z"/>
<path d="M8758 1529 c-17 -9 -18 -46 -18 -544 0 -518 1 -535 19 -545 26 -13
316 -13 342 0 18 10 19 27 19 545 0 518 -1 535 -19 545 -25 13 -320 13 -343
-1z"/>
<path d="M9262 1528 c-7 -7 -12 -19 -12 -27 0 -9 85 -252 188 -541 l188 -525
198 0 198 0 189 525 c104 289 189 532 189 540 0 36 -21 40 -197 40 -154 0
-173 -2 -181 -17 -5 -10 -49 -150 -98 -310 -49 -161 -91 -293 -94 -293 -3 0
-48 139 -100 308 l-95 307 -180 3 c-132 2 -184 -1 -193 -10z"/>
</g>
</svg>
